# xmcd
#
# Track frame offsets:
#	182
#	17332
#	41367
#	61087
#	78700
#	97375
#	116485
#	137255
#	156005
#	174450
#	197472
#
# Disc length: 2869 seconds
#
# Revision: 0
# Processed by: cddbd v1.5.2PL0 Copyright (c) Steve Scherf et al.
# Submitted via: audiograbber 1.83.01
#
DISCID=800b330b
DTITLE=Cameo - The Best Of
DYEAR=1900
DGENRE=Oldies
TTITLE0=She's Strange
TTITLE1=I Just Want To Be
TTITLE2=Shake Your Pants
TTITLE3=I'll Always Stay
TTITLE4=Flirt
TTITLE5=I Like It
TTITLE6=I Care For You
TTITLE7=Be Yourself
TTITLE8=Keep It Hot
TTITLE9=Feel Me
TTITLE10=The Rock
EXTD=
EXTT0=
EXTT1=
EXTT2=
EXTT3=
EXTT4=
EXTT5=
EXTT6=
EXTT7=
EXTT8=
EXTT9=
EXTT10=
PLAYORDER=
